<svg data-v-423bf9ae="" xmlns="http://www.w3.org/2000/svg" viewBox="0 0 588 90" class="iconLeftSlogan"><!----><!----><!----><g data-v-423bf9ae="" id="1b8dc97a-7136-466c-95e6-73a28a2039ef" fill="white" transform="matrix(5.970149140426311,0,0,5.970149140426311,69.8805971948322,-16.417909659335194)"><path d="M0.69 9.04L1.07 9.04L1.07 9.72L1.07 9.72Q1.07 10.26 1.24 10.76L1.24 10.76L1.24 10.76Q1.41 11.25 1.73 11.63L1.73 11.63L1.73 11.63Q2.04 12.01 2.50 12.24L2.50 12.24L2.50 12.24Q2.95 12.47 3.52 12.47L3.52 12.47L4.03 12.47L4.03 12.47Q4.46 12.47 4.75 12.37L4.75 12.37L4.75 12.37Q5.05 12.28 5.23 12.09L5.23 12.09L5.23 12.09Q5.41 11.89 5.50 11.61L5.50 11.61L5.50 11.61Q5.58 11.32 5.58 10.94L5.58 10.94L5.58 10.48L5.58 10.48Q5.58 10.11 5.47 9.84L5.47 9.84L5.47 9.84Q5.37 9.58 5.19 9.38L5.19 9.38L5.19 9.38Q5.00 9.18 4.76 9.04L4.76 9.04L4.76 9.04Q4.51 8.89 4.22 8.76L4.22 8.76L4.22 8.76Q3.86 8.60 3.45 8.43L3.45 8.43L3.45 8.43Q3.04 8.25 2.63 8.05L2.63 8.05L2.63 8.05Q2.23 7.84 1.86 7.60L1.86 7.60L1.86 7.60Q1.50 7.36 1.23 7.07L1.23 7.07L1.23 7.07Q1.09 6.92 0.98 6.72L0.98 6.72L0.98 6.72Q0.88 6.53 0.82 6.31L0.82 6.31L0.82 6.31Q0.75 6.10 0.72 5.88L0.72 5.88L0.72 5.88Q0.69 5.65 0.69 5.44L0.69 5.44L0.69 5.44Q0.69 5.27 0.70 5.03L0.70 5.03L0.70 5.03Q0.70 4.79 0.76 4.52L0.76 4.52L0.76 4.52Q0.81 4.26 0.93 4.00L0.93 4.00L0.93 4.00Q1.05 3.75 1.28 3.54L1.28 3.54L1.28 3.54Q1.51 3.34 1.87 3.21L1.87 3.21L1.87 3.21Q2.24 3.08 2.77 3.08L2.77 3.08L5.16 3.08L5.16 3.08Q5.48 3.08 5.76 3.20L5.76 3.20L5.76 3.20Q6.04 3.32 6.25 3.53L6.25 3.53L6.25 3.53Q6.46 3.74 6.58 4.02L6.58 4.02L6.58 4.02Q6.71 4.29 6.71 4.61L6.71 4.61L6.71 5.91L6.31 5.91L6.31 5.91Q6.28 5.41 6.08 4.96L6.08 4.96L6.08 4.96Q5.89 4.50 5.57 4.17L5.57 4.17L5.57 4.17Q5.25 3.83 4.82 3.63L4.82 3.63L4.82 3.63Q4.38 3.42 3.86 3.42L3.86 3.42L3.77 3.42L3.77 3.42Q3.31 3.42 3.01 3.50L3.01 3.50L3.01 3.50Q2.71 3.58 2.54 3.76L2.54 3.76L2.54 3.76Q2.36 3.94 2.29 4.23L2.29 4.23L2.29 4.23Q2.21 4.52 2.21 4.95L2.21 4.95L2.21 4.95Q2.21 5.20 2.27 5.43L2.27 5.43L2.27 5.43Q2.33 5.67 2.54 5.92L2.54 5.92L2.54 5.92Q2.75 6.16 3.15 6.42L3.15 6.42L3.15 6.42Q3.55 6.68 4.23 6.97L4.23 6.97L4.23 6.97Q4.52 7.09 4.84 7.22L4.84 7.22L4.84 7.22Q5.16 7.34 5.48 7.50L5.48 7.50L5.48 7.50Q5.80 7.66 6.09 7.86L6.09 7.86L6.09 7.86Q6.38 8.07 6.61 8.34L6.61 8.34L6.61 8.34Q6.84 8.61 6.97 8.97L6.97 8.97L6.97 8.97Q7.10 9.32 7.10 9.78L7.10 9.78L7.10 10.38L7.10 10.38Q7.10 11.56 6.55 12.18L6.55 12.18L6.55 12.18Q6.00 12.80 4.86 12.80L4.86 12.80L2.21 12.80L2.21 12.80Q1.90 12.80 1.62 12.68L1.62 12.68L1.62 12.68Q1.35 12.56 1.14 12.36L1.14 12.36L1.14 12.36Q0.93 12.15 0.81 11.87L0.81 11.87L0.81 11.87Q0.69 11.59 0.69 11.28L0.69 11.28L0.69 9.04ZM9.98 7.79L12.58 7.79L12.58 7.14L12.58 7.14Q12.58 6.32 12.20 5.97L12.20 5.97L12.20 5.97Q11.81 5.63 10.99 5.63L10.99 5.63L10.99 5.63Q10.59 5.63 10.31 5.70L10.31 5.70L10.31 5.70Q10.02 5.78 9.84 5.96L9.84 5.96L9.84 5.96Q9.67 6.15 9.59 6.43L9.59 6.43L9.59 6.43Q9.51 6.72 9.51 7.14L9.51 7.14L9.51 7.30L9.11 7.30L9.11 6.18L9.11 6.18Q9.11 5.87 9.13 5.69L9.13 5.69L9.13 5.69Q9.15 5.51 9.24 5.42L9.24 5.42L9.24 5.42Q9.32 5.33 9.48 5.31L9.48 5.31L9.48 5.31Q9.64 5.28 9.93 5.28L9.93 5.28L12.58 5.28L12.58 5.28Q12.87 5.28 13.14 5.42L13.14 5.42L13.14 5.42Q13.41 5.55 13.62 5.77L13.62 5.77L13.62 5.77Q13.84 5.98 13.97 6.25L13.97 6.25L13.97 6.25Q14.10 6.53 14.10 6.81L14.10 6.81L14.10 11.27L14.10 11.27Q14.10 11.58 13.97 11.85L13.97 11.85L13.97 11.85Q13.85 12.12 13.64 12.33L13.64 12.33L13.64 12.33Q13.43 12.53 13.15 12.66L13.15 12.66L13.15 12.66Q12.88 12.78 12.58 12.80L12.58 12.80L9.98 12.80L9.98 12.80Q9.67 12.80 9.39 12.68L9.39 12.68L9.39 12.68Q9.12 12.56 8.91 12.36L8.91 12.36L8.91 12.36Q8.71 12.15 8.59 11.87L8.59 11.87L8.59 11.87Q8.47 11.59 8.47 11.27L8.47 11.27L8.47 9.31L8.47 9.31Q8.47 9.00 8.59 8.72L8.59 8.72L8.59 8.72Q8.71 8.44 8.91 8.23L8.91 8.23L8.91 8.23Q9.12 8.03 9.39 7.91L9.39 7.91L9.39 7.91Q9.67 7.79 9.98 7.79L9.98 7.79ZM12.58 10.94L12.58 8.13L11.54 8.13L11.54 8.13Q11.11 8.13 10.81 8.21L10.81 8.21L10.81 8.21Q10.51 8.29 10.33 8.46L10.33 8.46L10.33 8.46Q10.14 8.64 10.06 8.93L10.06 8.93L10.06 8.93Q9.98 9.22 9.98 9.64L9.98 9.64L9.98 10.94L9.98 10.94Q9.98 11.33 10.05 11.60L10.05 11.60L10.05 11.60Q10.12 11.87 10.27 12.06L10.27 12.06L10.27 12.06Q10.42 12.24 10.66 12.33L10.66 12.33L10.66 12.33Q10.90 12.43 11.25 12.46L11.25 12.46L11.25 12.46Q11.62 12.43 11.87 12.34L11.87 12.34L11.87 12.34Q12.13 12.25 12.29 12.07L12.29 12.07L12.29 12.07Q12.45 11.89 12.52 11.61L12.52 11.61L12.52 11.61Q12.58 11.33 12.58 10.94L12.58 10.94ZM17.37 2.95L17.37 2.95L17.37 5.27L19.95 5.27L19.95 5.27Q20.27 5.27 20.54 5.39L20.54 5.39L20.54 5.39Q20.82 5.51 21.02 5.71L21.02 5.71L21.02 5.71Q21.23 5.92 21.35 6.20L21.35 6.20L21.35 6.20Q21.46 6.47 21.46 6.79L21.46 6.79L21.46 11.29L21.46 11.29Q21.46 11.60 21.35 11.88L21.35 11.88L21.35 11.88Q21.23 12.15 21.02 12.36L21.02 12.36L21.02 12.36Q20.82 12.56 20.54 12.68L20.54 12.68L20.54 12.68Q20.27 12.80 19.95 12.80L19.95 12.80L15.83 12.80L15.83 4.59L15.83 4.59Q15.83 4.12 15.91 3.81L15.91 3.81L15.91 3.81Q15.99 3.49 16.17 3.30L16.17 3.30L16.17 3.30Q16.36 3.11 16.65 3.03L16.65 3.03L16.65 3.03Q16.95 2.95 17.37 2.95ZM18.38 5.61L17.37 5.61L17.37 12.47L18.38 12.47L18.38 12.47Q18.81 12.47 19.11 12.39L19.11 12.39L19.11 12.39Q19.41 12.31 19.60 12.13L19.60 12.13L19.60 12.13Q19.79 11.95 19.87 11.66L19.87 11.66L19.87 11.66Q19.95 11.36 19.95 10.94L19.95 10.94L19.95 7.12L19.95 7.12Q19.95 6.70 19.87 6.41L19.87 6.41L19.87 6.41Q19.79 6.12 19.60 5.94L19.60 5.94L19.60 5.94Q19.41 5.76 19.11 5.69L19.11 5.69L19.11 5.69Q18.81 5.61 18.38 5.61L18.38 5.61ZM27.32 7.30L26.91 7.30L26.91 7.30Q26.86 7.01 26.75 6.72L26.75 6.72L26.75 6.72Q26.65 6.43 26.48 6.20L26.48 6.20L26.48 6.20Q26.32 5.97 26.09 5.83L26.09 5.83L26.09 5.83Q25.87 5.69 25.58 5.69L25.58 5.69L25.58 5.69Q25.18 5.69 24.96 5.99L24.96 5.99L24.96 5.99Q24.74 6.28 24.74 6.73L24.74 6.73L24.74 11.21L24.74 11.21Q24.74 11.66 24.67 11.96L24.67 11.96L24.67 11.96Q24.60 12.26 24.42 12.45L24.42 12.45L24.42 12.45Q24.25 12.64 23.95 12.72L23.95 12.72L23.95 12.72Q23.65 12.80 23.19 12.80L23.19 12.80L23.19 6.90L23.19 6.90Q23.19 6.45 23.28 6.13L23.28 6.13L23.28 6.13Q23.36 5.82 23.54 5.63L23.54 5.63L23.54 5.63Q23.72 5.43 24.01 5.35L24.01 5.35L24.01 5.35Q24.31 5.27 24.74 5.27L24.74 5.27L26.18 5.27L26.18 5.27Q26.54 5.27 26.76 5.39L26.76 5.39L26.76 5.39Q26.97 5.50 27.10 5.70L27.10 5.70L27.10 5.70Q27.23 5.90 27.27 6.17L27.27 6.17L27.27 6.17Q27.32 6.43 27.32 6.73L27.32 6.73L27.32 7.30ZM29.13 2.75L29.13 2.75L29.13 2.75Q29.31 2.75 29.46 2.82L29.46 2.82L29.46 2.82Q29.62 2.89 29.74 3.01L29.74 3.01L29.74 3.01Q29.85 3.12 29.92 3.28L29.92 3.28L29.92 3.28Q29.99 3.44 29.99 3.62L29.99 3.62L29.99 3.62Q29.99 3.79 29.92 3.95L29.92 3.95L29.92 3.95Q29.85 4.12 29.74 4.23L29.74 4.23L29.74 4.23Q29.62 4.35 29.46 4.43L29.46 4.43L29.46 4.43Q29.31 4.50 29.13 4.50L29.13 4.50L29.13 4.50Q28.96 4.50 28.80 4.43L28.80 4.43L28.80 4.43Q28.64 4.35 28.52 4.23L28.52 4.23L28.52 4.23Q28.40 4.12 28.33 3.95L28.33 3.95L28.33 3.95Q28.26 3.79 28.26 3.62L28.26 3.62L28.26 3.62Q28.26 3.45 28.33 3.29L28.33 3.29L28.33 3.29Q28.40 3.13 28.52 3.01L28.52 3.01L28.52 3.01Q28.64 2.89 28.80 2.82L28.80 2.82L28.80 2.82Q28.96 2.75 29.13 2.75ZM29.89 5.15L29.89 11.22L29.89 11.22Q29.89 11.66 29.82 11.97L29.82 11.97L29.82 11.97Q29.75 12.27 29.58 12.46L29.58 12.46L29.58 12.46Q29.40 12.64 29.10 12.72L29.10 12.72L29.10 12.72Q28.81 12.80 28.36 12.80L28.36 12.80L28.36 6.78L28.36 6.78Q28.36 6.32 28.44 6.01L28.44 6.01L28.44 6.01Q28.52 5.70 28.70 5.51L28.70 5.51L28.70 5.51Q28.88 5.32 29.18 5.23L29.18 5.23L29.18 5.23Q29.47 5.15 29.89 5.15L29.89 5.15ZM35.73 5.27L35.73 5.27L35.73 5.27Q36.04 5.27 36.32 5.39L36.32 5.39L36.32 5.39Q36.60 5.51 36.81 5.72L36.81 5.72L36.81 5.72Q37.02 5.93 37.15 6.21L37.15 6.21L37.15 6.21Q37.28 6.49 37.28 6.80L37.28 6.80L37.28 11.20L37.28 11.20Q37.28 11.65 37.20 11.96L37.20 11.96L37.20 11.96Q37.13 12.26 36.96 12.45L36.96 12.45L36.96 12.45Q36.78 12.64 36.48 12.72L36.48 12.72L36.48 12.72Q36.18 12.80 35.73 12.80L35.73 12.80L35.73 7.13L35.73 7.13Q35.73 6.34 35.43 5.98L35.43 5.98L35.43 5.98Q35.12 5.62 34.46 5.62L34.46 5.62L33.19 5.62L33.19 11.20L33.19 11.20Q33.19 11.65 33.12 11.96L33.12 11.96L33.12 11.96Q33.04 12.26 32.86 12.45L32.86 12.45L32.86 12.45Q32.68 12.64 32.38 12.72L32.38 12.72L32.38 12.72Q32.08 12.80 31.63 12.80L31.63 12.80L31.63 5.27L34.46 5.27L35.73 5.27ZM40.52 7.79L43.12 7.79L43.12 7.14L43.12 7.14Q43.12 6.32 42.73 5.97L42.73 5.97L42.73 5.97Q42.34 5.63 41.53 5.63L41.53 5.63L41.53 5.63Q41.13 5.63 40.84 5.70L40.84 5.70L40.84 5.70Q40.56 5.78 40.38 5.96L40.38 5.96L40.38 5.96Q40.20 6.15 40.12 6.43L40.12 6.43L40.12 6.43Q40.04 6.72 40.04 7.14L40.04 7.14L40.04 7.30L39.65 7.30L39.65 6.18L39.65 6.18Q39.65 5.87 39.67 5.69L39.67 5.69L39.67 5.69Q39.69 5.51 39.77 5.42L39.77 5.42L39.77 5.42Q39.85 5.33 40.01 5.31L40.01 5.31L40.01 5.31Q40.17 5.28 40.46 5.28L40.46 5.28L43.12 5.28L43.12 5.28Q43.40 5.28 43.67 5.42L43.67 5.42L43.67 5.42Q43.94 5.55 44.16 5.77L44.16 5.77L44.16 5.77Q44.37 5.98 44.50 6.25L44.50 6.25L44.50 6.25Q44.63 6.53 44.63 6.81L44.63 6.81L44.63 11.27L44.63 11.27Q44.63 11.58 44.51 11.85L44.51 11.85L44.51 11.85Q44.39 12.12 44.17 12.33L44.17 12.33L44.17 12.33Q43.96 12.53 43.69 12.66L43.69 12.66L43.69 12.66Q43.42 12.78 43.12 12.80L43.12 12.80L40.52 12.80L40.52 12.80Q40.20 12.80 39.93 12.68L39.93 12.68L39.93 12.68Q39.66 12.56 39.45 12.36L39.45 12.36L39.45 12.36Q39.25 12.15 39.13 11.87L39.13 11.87L39.13 11.87Q39.01 11.59 39.01 11.27L39.01 11.27L39.01 9.31L39.01 9.31Q39.01 9.00 39.13 8.72L39.13 8.72L39.13 8.72Q39.25 8.44 39.45 8.23L39.45 8.23L39.45 8.23Q39.66 8.03 39.93 7.91L39.93 7.91L39.93 7.91Q40.20 7.79 40.52 7.79L40.52 7.79ZM43.12 10.94L43.12 8.13L42.08 8.13L42.08 8.13Q41.64 8.13 41.35 8.21L41.35 8.21L41.35 8.21Q41.05 8.29 40.87 8.46L40.87 8.46L40.87 8.46Q40.68 8.64 40.60 8.93L40.60 8.93L40.60 8.93Q40.52 9.22 40.52 9.64L40.52 9.64L40.52 10.94L40.52 10.94Q40.52 11.33 40.58 11.60L40.58 11.60L40.58 11.60Q40.65 11.87 40.80 12.06L40.80 12.06L40.80 12.06Q40.95 12.24 41.20 12.33L41.20 12.33L41.20 12.33Q41.44 12.43 41.79 12.46L41.79 12.46L41.79 12.46Q42.16 12.43 42.41 12.34L42.41 12.34L42.41 12.34Q42.66 12.25 42.82 12.07L42.82 12.07L42.82 12.07Q42.98 11.89 43.05 11.61L43.05 11.61L43.05 11.61Q43.12 11.33 43.12 10.94L43.12 10.94ZM51.93 2.95L51.93 7.75L55.79 3.37L55.79 3.37Q55.86 3.31 55.93 3.24L55.93 3.24L55.93 3.24Q56 3.17 56.10 3.10L56.10 3.10L56.10 3.10Q56.20 3.04 56.33 2.99L56.33 2.99L56.33 2.99Q56.46 2.95 56.63 2.95L56.63 2.95L57.07 2.95L57.07 2.95Q57.11 2.95 57.10 2.97L57.10 2.97L57.10 2.97Q57.09 2.99 57.07 2.99L57.07 2.99L57.07 2.99Q56.81 2.99 56.65 3.08L56.65 3.08L56.65 3.08Q56.49 3.17 56.30 3.37L56.30 3.37L53.10 6.96L56.93 12.12L56.93 12.12Q57.01 12.24 57.10 12.35L57.10 12.35L57.10 12.35Q57.19 12.47 57.29 12.56L57.29 12.56L57.29 12.56Q57.39 12.65 57.51 12.71L57.51 12.71L57.51 12.71Q57.63 12.78 57.78 12.78L57.78 12.78L57.78 12.78Q57.79 12.78 57.79 12.80L57.79 12.80L57.79 12.80Q57.79 12.80 57.78 12.80L57.78 12.80L56.53 12.80L56.53 12.80Q56.21 12.80 56.00 12.79L56.00 12.79L56.00 12.79Q55.80 12.78 55.64 12.69L55.64 12.69L55.64 12.69Q55.47 12.61 55.32 12.44L55.32 12.44L55.32 12.44Q55.16 12.26 54.93 11.94L54.93 11.94L51.93 7.79L51.93 11.22L51.93 11.22Q51.93 11.67 51.86 11.97L51.86 11.97L51.86 11.97Q51.79 12.27 51.61 12.46L51.61 12.46L51.61 12.46Q51.44 12.64 51.14 12.72L51.14 12.72L51.14 12.72Q50.85 12.80 50.39 12.80L50.39 12.80L50.39 4.58L50.39 4.58Q50.39 4.12 50.48 3.81L50.48 3.81L50.48 3.81Q50.56 3.50 50.74 3.31L50.74 3.31L50.74 3.31Q50.92 3.12 51.21 3.04L51.21 3.04L51.21 3.04Q51.51 2.95 51.93 2.95L51.93 2.95ZM60.99 5.63L60.99 5.63L60.99 5.63Q60.28 5.63 59.99 5.98L59.99 5.98L59.99 5.98Q59.69 6.34 59.69 7.12L59.69 7.12L59.69 7.77L62.29 7.77L62.29 7.12L62.29 7.12Q62.29 6.73 62.22 6.45L62.22 6.45L62.22 6.45Q62.15 6.17 62.00 5.98L62.00 5.98L62.00 5.98Q61.84 5.80 61.60 5.71L61.60 5.71L61.60 5.71Q61.35 5.63 60.99 5.63ZM63.81 8.11L59.69 8.11L59.69 10.95L59.69 10.95Q59.69 11.38 59.77 11.67L59.77 11.67L59.77 11.67Q59.86 11.96 60.04 12.14L60.04 12.14L60.04 12.14Q60.22 12.32 60.52 12.40L60.52 12.40L60.52 12.40Q60.81 12.48 61.24 12.48L61.24 12.48L61.32 12.48L61.32 12.48Q61.75 12.48 62.04 12.40L62.04 12.40L62.04 12.40Q62.34 12.32 62.52 12.14L62.52 12.14L62.52 12.14Q62.71 11.96 62.78 11.67L62.78 11.67L62.78 11.67Q62.86 11.38 62.86 10.95L62.86 10.95L62.86 10.30L63.25 10.30L63.25 11.29L63.25 11.29Q63.25 11.51 63.21 11.78L63.21 11.78L63.21 11.78Q63.16 12.04 63 12.27L63 12.27L63 12.27Q62.84 12.50 62.54 12.65L62.54 12.65L62.54 12.65Q62.24 12.80 61.74 12.80L61.74 12.80L59.69 12.80L59.69 12.80Q59.42 12.80 59.15 12.67L59.15 12.67L59.15 12.67Q58.88 12.54 58.66 12.33L58.66 12.33L58.66 12.33Q58.45 12.11 58.31 11.84L58.31 11.84L58.31 11.84Q58.18 11.57 58.18 11.29L58.18 11.29L58.18 6.79L58.18 6.79Q58.18 6.49 58.30 6.22L58.30 6.22L58.30 6.22Q58.43 5.95 58.64 5.75L58.64 5.75L58.64 5.75Q58.85 5.54 59.12 5.42L59.12 5.42L59.12 5.42Q59.39 5.29 59.69 5.27L59.69 5.27L62.29 5.27L62.29 5.27Q62.60 5.27 62.88 5.39L62.88 5.39L62.88 5.39Q63.16 5.51 63.36 5.72L63.36 5.72L63.36 5.72Q63.57 5.93 63.69 6.20L63.69 6.20L63.69 6.20Q63.81 6.48 63.81 6.79L63.81 6.79L63.81 8.11ZM67.98 5.63L67.98 5.63L67.98 5.63Q67.27 5.63 66.98 5.98L66.98 5.98L66.98 5.98Q66.68 6.34 66.68 7.12L66.68 7.12L66.68 7.77L69.28 7.77L69.28 7.12L69.28 7.12Q69.28 6.73 69.21 6.45L69.21 6.45L69.21 6.45Q69.15 6.17 68.99 5.98L68.99 5.98L68.99 5.98Q68.84 5.80 68.59 5.71L68.59 5.71L68.59 5.71Q68.35 5.63 67.98 5.63ZM70.80 8.11L66.68 8.11L66.68 10.95L66.68 10.95Q66.68 11.38 66.77 11.67L66.77 11.67L66.77 11.67Q66.85 11.96 67.03 12.14L67.03 12.14L67.03 12.14Q67.21 12.32 67.51 12.40L67.51 12.40L67.51 12.40Q67.81 12.48 68.24 12.48L68.24 12.48L68.31 12.48L68.31 12.48Q68.74 12.48 69.04 12.40L69.04 12.40L69.04 12.40Q69.33 12.32 69.51 12.14L69.51 12.14L69.51 12.14Q69.70 11.96 69.78 11.67L69.78 11.67L69.78 11.67Q69.86 11.38 69.86 10.95L69.86 10.95L69.86 10.30L70.25 10.30L70.25 11.29L70.25 11.29Q70.25 11.51 70.20 11.78L70.20 11.78L70.20 11.78Q70.15 12.04 69.99 12.27L69.99 12.27L69.99 12.27Q69.84 12.50 69.54 12.65L69.54 12.65L69.54 12.65Q69.23 12.80 68.73 12.80L68.73 12.80L66.68 12.80L66.68 12.80Q66.41 12.80 66.14 12.67L66.14 12.67L66.14 12.67Q65.87 12.54 65.66 12.33L65.66 12.33L65.66 12.33Q65.44 12.11 65.31 11.84L65.31 11.84L65.31 11.84Q65.17 11.57 65.17 11.29L65.17 11.29L65.17 6.79L65.17 6.79Q65.17 6.49 65.30 6.22L65.30 6.22L65.30 6.22Q65.42 5.95 65.63 5.75L65.63 5.75L65.63 5.75Q65.84 5.54 66.11 5.42L66.11 5.42L66.11 5.42Q66.38 5.29 66.68 5.27L66.68 5.27L69.28 5.27L69.28 5.27Q69.60 5.27 69.87 5.39L69.87 5.39L69.87 5.39Q70.15 5.51 70.36 5.72L70.36 5.72L70.36 5.72Q70.56 5.93 70.68 6.20L70.68 6.20L70.68 6.20Q70.80 6.48 70.80 6.79L70.80 6.79L70.80 8.11ZM73.71 2.94L73.71 2.94L73.71 10.94L73.71 10.94Q73.71 11.22 73.71 11.55L73.71 11.55L73.71 11.55Q73.71 11.87 73.79 12.14L73.79 12.14L73.79 12.14Q73.87 12.41 74.06 12.58L74.06 12.58L74.06 12.58Q74.25 12.76 74.61 12.76L74.61 12.76L74.61 12.76Q74.63 12.76 74.63 12.78L74.63 12.78L74.63 12.78Q74.63 12.80 74.61 12.80L74.61 12.80L73.69 12.80L73.69 12.80Q73.16 12.80 72.85 12.68L72.85 12.68L72.85 12.68Q72.55 12.56 72.40 12.36L72.40 12.36L72.40 12.36Q72.24 12.15 72.20 11.87L72.20 11.87L72.20 11.87Q72.17 11.59 72.17 11.27L72.17 11.27L72.17 4.57L72.17 4.57Q72.17 4.12 72.25 3.80L72.25 3.80L72.25 3.80Q72.33 3.49 72.51 3.29L72.51 3.29L72.51 3.29Q72.69 3.10 72.99 3.02L72.99 3.02L72.99 3.02Q73.28 2.94 73.71 2.94ZM78.47 5.63L78.47 5.63L78.47 5.63Q77.76 5.63 77.46 5.98L77.46 5.98L77.46 5.98Q77.17 6.34 77.17 7.12L77.17 7.12L77.17 7.77L79.77 7.77L79.77 7.12L79.77 7.12Q79.77 6.73 79.70 6.45L79.70 6.45L79.70 6.45Q79.63 6.17 79.48 5.98L79.48 5.98L79.48 5.98Q79.32 5.80 79.08 5.71L79.08 5.71L79.08 5.71Q78.83 5.63 78.47 5.63ZM81.29 8.11L77.17 8.11L77.17 10.95L77.17 10.95Q77.17 11.38 77.25 11.67L77.25 11.67L77.25 11.67Q77.33 11.96 77.52 12.14L77.52 12.14L77.52 12.14Q77.70 12.32 77.99 12.40L77.99 12.40L77.99 12.40Q78.29 12.48 78.72 12.48L78.72 12.48L78.80 12.48L78.80 12.48Q79.23 12.48 79.52 12.40L79.52 12.40L79.52 12.40Q79.82 12.32 80.00 12.14L80.00 12.14L80.00 12.14Q80.19 11.96 80.26 11.67L80.26 11.67L80.26 11.67Q80.34 11.38 80.34 10.95L80.34 10.95L80.34 10.30L80.73 10.30L80.73 11.29L80.73 11.29Q80.73 11.51 80.68 11.78L80.68 11.78L80.68 11.78Q80.64 12.04 80.48 12.27L80.48 12.27L80.48 12.27Q80.32 12.50 80.02 12.65L80.02 12.65L80.02 12.65Q79.72 12.80 79.21 12.80L79.21 12.80L77.17 12.80L77.17 12.80Q76.90 12.80 76.63 12.67L76.63 12.67L76.63 12.67Q76.36 12.54 76.14 12.33L76.14 12.33L76.14 12.33Q75.93 12.11 75.79 11.84L75.79 11.84L75.79 11.84Q75.66 11.57 75.66 11.29L75.66 11.29L75.66 6.79L75.66 6.79Q75.66 6.49 75.78 6.22L75.78 6.22L75.78 6.22Q75.91 5.95 76.12 5.75L76.12 5.75L76.12 5.75Q76.33 5.54 76.60 5.42L76.60 5.42L76.60 5.42Q76.87 5.29 77.17 5.27L77.17 5.27L79.77 5.27L79.77 5.27Q80.08 5.27 80.36 5.39L80.36 5.39L80.36 5.39Q80.64 5.51 80.84 5.72L80.84 5.72L80.84 5.72Q81.05 5.93 81.17 6.20L81.17 6.20L81.17 6.20Q81.29 6.48 81.29 6.79L81.29 6.79L81.29 8.11ZM86.78 7.30L86.37 7.30L86.37 7.30Q86.32 7.01 86.21 6.72L86.21 6.72L86.21 6.72Q86.11 6.43 85.94 6.20L85.94 6.20L85.94 6.20Q85.78 5.97 85.55 5.83L85.55 5.83L85.55 5.83Q85.33 5.69 85.04 5.69L85.04 5.69L85.04 5.69Q84.64 5.69 84.42 5.99L84.42 5.99L84.42 5.99Q84.20 6.28 84.20 6.73L84.20 6.73L84.20 11.21L84.20 11.21Q84.20 11.66 84.13 11.96L84.13 11.96L84.13 11.96Q84.05 12.26 83.88 12.45L83.88 12.45L83.88 12.45Q83.71 12.64 83.41 12.72L83.41 12.72L83.41 12.72Q83.10 12.80 82.65 12.80L82.65 12.80L82.65 6.90L82.65 6.90Q82.65 6.45 82.74 6.13L82.74 6.13L82.74 6.13Q82.82 5.82 83.00 5.63L83.00 5.63L83.00 5.63Q83.18 5.43 83.47 5.35L83.47 5.35L83.47 5.35Q83.77 5.27 84.20 5.27L84.20 5.27L85.64 5.27L85.64 5.27Q86.00 5.27 86.21 5.39L86.21 5.39L86.21 5.39Q86.43 5.50 86.56 5.70L86.56 5.70L86.56 5.70Q86.69 5.90 86.73 6.17L86.73 6.17L86.73 6.17Q86.78 6.43 86.78 6.73L86.78 6.73L86.78 7.30Z"></path></g><!----><g data-v-423bf9ae="" id="8952a538-ce5e-46ee-ab71-55bd13911c9c" transform="matrix(1.1042943751521783,0,0,1.1042943751521783,-22.096315295324437,-6.625766250913067)" stroke="none" fill="white"><path d="M28.3 38.5c2.2 0 4.2.8 5.8 2.4 1.6 1.6 2.4 3.5 2.4 5.8s-.8 4.2-2.4 5.8c-1.6 1.6-3.5 2.4-5.8 2.4s-4.2-.8-5.8-2.4c-1.6-1.6-2.4-3.5-2.4-5.8s.8-4.2 2.4-5.8c1.6-1.6 3.5-2.4 5.8-2.4zm0 32.6c2.2 0 4.2.8 5.8 2.4 1.6 1.6 2.4 3.5 2.4 5.8s-.8 4.2-2.4 5.8c-1.6 1.6-3.5 2.4-5.8 2.4s-4.2-.8-5.8-2.4-2.4-3.5-2.4-5.8.8-4.2 2.4-5.8c1.6-1.6 3.5-2.4 5.8-2.4zm0-59c1.4 0 2.1.7 2.1 2 0 1.4-.7 2.1-2.1 2.1s-2.1-.7-2.1-2.1c0-1.3.7-2 2.1-2zM60.8 6c2.2 0 4.2.8 5.8 2.4 1.6 1.6 2.4 3.5 2.4 5.8s-.8 4.2-2.4 5.8c-1.6 1.6-3.5 2.4-5.8 2.4-2.2 0-4.2-.8-5.8-2.4-1.6-1.6-2.4-3.5-2.4-5.8 0-2.2.8-4.2 2.4-5.8C56.7 6.8 58.6 6 60.8 6zm0 38.7c1.4 0 2.1.7 2.1 2s-.7 2-2.1 2c-1.4 0-2-.7-2-2s.7-2 2-2zm0 32.5c1.4 0 2.1.7 2.1 2.1 0 1.4-.7 2-2.1 2-1.4 0-2-.7-2-2 0-1.4.7-2.1 2-2.1z"></path></g><!----><g data-v-423bf9ae="" id="1d451d30-dd87-46b0-bfbd-d2a97211213a" fill="white" transform="matrix(1.4938277715123327,0,0,1.4938277715123327,73.05887978199533,54.562467670065985)"><path d="M4.31 3.64L4.31 3.64Q6.92 3.64 7.80 5.68L7.80 5.68L7.20 6.17L7.20 6.17Q6.85 5.18 6.15 4.73L6.15 4.73L6.15 4.73Q5.46 4.28 4.33 4.28L4.33 4.28L4.33 4.28Q3.51 4.28 2.91 4.54L2.91 4.54L2.91 4.54Q2.31 4.79 2.00 5.22L2.00 5.22L2.00 5.22Q1.68 5.66 1.68 6.20L1.68 6.20L1.68 6.20Q1.68 6.73 1.95 7.08L1.95 7.08L1.95 7.08Q2.21 7.43 2.85 7.68L2.85 7.68L2.85 7.68Q3.49 7.92 4.61 8.12L4.61 8.12L4.61 8.12Q6.41 8.43 7.17 9.02L7.17 9.02L7.17 9.02Q7.92 9.60 7.92 10.64L7.92 10.64L7.92 10.64Q7.92 11.38 7.49 11.96L7.49 11.96L7.49 11.96Q7.06 12.53 6.27 12.84L6.27 12.84L6.27 12.84Q5.47 13.16 4.45 13.16L4.45 13.16L4.45 13.16Q3.00 13.16 2.00 12.58L2.00 12.58L2.00 12.58Q0.99 12.00 0.63 10.95L0.63 10.95L1.25 10.47L1.25 10.47Q1.53 11.47 2.37 11.99L2.37 11.99L2.37 11.99Q3.22 12.52 4.47 12.52L4.47 12.52L4.47 12.52Q5.67 12.52 6.43 12.03L6.43 12.03L6.43 12.03Q7.20 11.54 7.20 10.68L7.20 10.68L7.20 10.68Q7.20 9.94 6.57 9.51L6.57 9.51L6.57 9.51Q5.95 9.07 4.41 8.81L4.41 8.81L4.41 8.81Q3.11 8.58 2.35 8.26L2.35 8.26L2.35 8.26Q1.60 7.94 1.27 7.46L1.27 7.46L1.27 7.46Q0.94 6.99 0.94 6.27L0.94 6.27L0.94 6.27Q0.94 5.56 1.35 4.96L1.35 4.96L1.35 4.96Q1.76 4.35 2.53 4.00L2.53 4.00L2.53 4.00Q3.29 3.64 4.31 3.64L4.31 3.64ZM20.79 3.64L20.79 3.64Q22.09 3.64 23.05 4.22L23.05 4.22L23.05 4.22Q24.01 4.80 24.53 5.87L24.53 5.87L24.53 5.87Q25.05 6.94 25.05 8.40L25.05 8.40L25.05 8.40Q25.05 9.86 24.53 10.93L24.53 10.93L24.53 10.93Q24.01 12.00 23.05 12.58L23.05 12.58L23.05 12.58Q22.09 13.16 20.79 13.16L20.79 13.16L20.79 13.16Q19.49 13.16 18.53 12.58L18.53 12.58L18.53 12.58Q17.57 12.00 17.05 10.93L17.05 10.93L17.05 10.93Q16.53 9.86 16.53 8.40L16.53 8.40L16.53 8.40Q16.53 6.94 17.05 5.87L17.05 5.87L17.05 5.87Q17.57 4.80 18.53 4.22L18.53 4.22L18.53 4.22Q19.49 3.64 20.79 3.64L20.79 3.64ZM20.79 4.28L20.79 4.28Q19.71 4.28 18.92 4.78L18.92 4.78L18.92 4.78Q18.13 5.28 17.70 6.21L17.70 6.21L17.70 6.21Q17.28 7.14 17.28 8.40L17.28 8.40L17.28 8.40Q17.28 9.66 17.70 10.59L17.70 10.59L17.70 10.59Q18.13 11.52 18.92 12.02L18.92 12.02L18.92 12.02Q19.71 12.52 20.79 12.52L20.79 12.52L20.79 12.52Q21.87 12.52 22.67 12.02L22.67 12.02L22.67 12.02Q23.46 11.52 23.89 10.59L23.89 10.59L23.89 10.59Q24.32 9.66 24.32 8.40L24.32 8.40L24.32 8.40Q24.32 7.14 23.89 6.21L23.89 6.21L23.89 6.21Q23.46 5.28 22.67 4.78L22.67 4.78L22.67 4.78Q21.87 4.28 20.79 4.28L20.79 4.28ZM40.67 4.42L35.07 4.42L35.07 7.99L39.51 7.99L39.51 8.65L35.07 8.65L35.07 13.02L34.37 13.02L34.37 3.78L40.67 3.78L40.67 4.42ZM55.85 3.78L55.85 4.42L52.47 4.42L52.47 13.02L51.77 13.02L51.77 4.42L48.40 4.42L48.40 3.78L55.85 3.78ZM69.19 6.54L67.33 13.02L66.46 13.02L63.57 3.78L64.33 3.78L66.89 12.45L69.31 3.78L70.13 3.78L72.55 12.46L75.14 3.78L75.85 3.78L72.97 13.02L72.10 13.02L70.24 6.54L69.72 4.54L69.71 4.54L69.19 6.54ZM90.48 13.02L89.32 10.12L84.90 10.12L83.75 13.02L83.01 13.02L86.70 3.78L87.53 3.78L91.22 13.02L90.48 13.02ZM85.16 9.48L89.07 9.48L87.46 5.45L87.12 4.47L87.11 4.47L86.77 5.42L85.16 9.48ZM106.89 13.02L106.06 13.02L103.42 9.02L103.38 9.02L100.65 9.02L100.65 13.02L99.95 13.02L99.95 3.78L103.38 3.78L103.38 3.78Q104.76 3.78 105.58 4.48L105.58 4.48L105.58 4.48Q106.40 5.18 106.40 6.40L106.40 6.40L106.40 6.40Q106.40 7.41 105.81 8.07L105.81 8.07L105.81 8.07Q105.22 8.74 104.20 8.93L104.20 8.93L106.89 13.02ZM100.65 4.42L100.65 8.36L103.36 8.36L103.36 8.36Q104.48 8.36 105.08 7.85L105.08 7.85L105.08 7.85Q105.67 7.35 105.67 6.40L105.67 6.40L105.67 6.40Q105.67 5.45 105.08 4.93L105.08 4.93L105.08 4.93Q104.48 4.42 103.36 4.42L103.36 4.42L100.65 4.42ZM116.61 12.38L122.44 12.38L122.44 13.02L115.91 13.02L115.91 3.78L122.22 3.78L122.22 4.42L116.61 4.42L116.61 7.99L121.04 7.99L121.04 8.65L116.61 8.65L116.61 12.38ZM145.77 3.78L145.77 3.78Q147.98 3.78 149.18 4.95L149.18 4.95L149.18 4.95Q150.37 6.12 150.37 8.33L150.37 8.33L150.37 8.33Q150.37 10.60 149.18 11.81L149.18 11.81L149.18 11.81Q147.98 13.02 145.77 13.02L145.77 13.02L142.86 13.02L142.86 3.78L145.77 3.78ZM145.82 12.38L145.82 12.38Q147.67 12.38 148.66 11.33L148.66 11.33L148.66 11.33Q149.65 10.29 149.65 8.33L149.65 8.33L149.65 8.33Q149.65 6.45 148.66 5.44L148.66 5.44L148.66 5.44Q147.67 4.42 145.82 4.42L145.82 4.42L143.56 4.42L143.56 12.38L145.82 12.38ZM160.41 12.38L166.25 12.38L166.25 13.02L159.71 13.02L159.71 3.78L166.03 3.78L166.03 4.42L160.41 4.42L160.41 7.99L164.85 7.99L164.85 8.65L160.41 8.65L160.41 12.38ZM182.10 3.78L178.54 13.02L177.72 13.02L174.15 3.78L174.90 3.78L177.63 10.93L178.12 12.36L178.61 10.93L181.36 3.78L182.10 3.78ZM191.58 12.38L197.41 12.38L197.41 13.02L190.88 13.02L190.88 3.78L197.19 3.78L197.19 4.42L191.58 4.42L191.58 7.99L196.01 7.99L196.01 8.65L191.58 8.65L191.58 12.38ZM207.14 12.38L212.69 12.38L212.69 13.02L206.44 13.02L206.44 3.78L207.14 3.78L207.14 12.38ZM224.57 3.64L224.57 3.64Q225.88 3.64 226.84 4.22L226.84 4.22L226.84 4.22Q227.79 4.80 228.31 5.87L228.31 5.87L228.31 5.87Q228.83 6.94 228.83 8.40L228.83 8.40L228.83 8.40Q228.83 9.86 228.31 10.93L228.31 10.93L228.31 10.93Q227.79 12.00 226.84 12.58L226.84 12.58L226.84 12.58Q225.88 13.16 224.57 13.16L224.57 13.16L224.57 13.16Q223.27 13.16 222.31 12.58L222.31 12.58L222.31 12.58Q221.35 12.00 220.84 10.93L220.84 10.93L220.84 10.93Q220.32 9.86 220.32 8.40L220.32 8.40L220.32 8.40Q220.32 6.94 220.84 5.87L220.84 5.87L220.84 5.87Q221.35 4.80 222.31 4.22L222.31 4.22L222.31 4.22Q223.27 3.64 224.57 3.64L224.57 3.64ZM224.57 4.28L224.57 4.28Q223.50 4.28 222.71 4.78L222.71 4.78L222.71 4.78Q221.91 5.28 221.49 6.21L221.49 6.21L221.49 6.21Q221.06 7.14 221.06 8.40L221.06 8.40L221.06 8.40Q221.06 9.66 221.49 10.59L221.49 10.59L221.49 10.59Q221.91 11.52 222.71 12.02L222.71 12.02L222.71 12.02Q223.50 12.52 224.57 12.52L224.57 12.52L224.57 12.52Q225.65 12.52 226.45 12.02L226.45 12.02L226.45 12.02Q227.25 11.52 227.68 10.59L227.68 10.59L227.68 10.59Q228.10 9.66 228.10 8.40L228.10 8.40L228.10 8.40Q228.10 7.14 227.68 6.21L227.68 6.21L227.68 6.21Q227.25 5.28 226.45 4.78L226.45 4.78L226.45 4.78Q225.65 4.28 224.57 4.28L224.57 4.28ZM241.22 3.78L241.22 3.78Q242.66 3.78 243.51 4.50L243.51 4.50L243.51 4.50Q244.36 5.22 244.36 6.48L244.36 6.48L244.36 6.48Q244.36 7.74 243.51 8.47L243.51 8.47L243.51 8.47Q242.66 9.20 241.22 9.20L241.22 9.20L238.85 9.20L238.85 13.02L238.15 13.02L238.15 3.78L241.22 3.78ZM241.14 8.54L241.14 8.54Q242.34 8.54 242.98 8.01L242.98 8.01L242.98 8.01Q243.61 7.48 243.61 6.48L243.61 6.48L243.61 6.48Q243.61 5.50 242.98 4.96L242.98 4.96L242.98 4.96Q242.34 4.42 241.14 4.42L241.14 4.42L238.85 4.42L238.85 8.54L241.14 8.54ZM254.07 12.38L259.91 12.38L259.91 13.02L253.37 13.02L253.37 3.78L259.69 3.78L259.69 4.42L254.07 4.42L254.07 7.99L258.51 7.99L258.51 8.65L254.07 8.65L254.07 12.38ZM275.88 13.02L275.06 13.02L272.41 9.02L272.37 9.02L269.64 9.02L269.64 13.02L268.94 13.02L268.94 3.78L272.37 3.78L272.37 3.78Q273.76 3.78 274.58 4.48L274.58 4.48L274.58 4.48Q275.39 5.18 275.39 6.40L275.39 6.40L275.39 6.40Q275.39 7.41 274.81 8.07L274.81 8.07L274.81 8.07Q274.22 8.74 273.20 8.93L273.20 8.93L275.88 13.02ZM269.64 4.42L269.64 8.36L272.36 8.36L272.36 8.36Q273.48 8.36 274.07 7.85L274.07 7.85L274.07 7.85Q274.67 7.35 274.67 6.40L274.67 6.40L274.67 6.40Q274.67 5.45 274.07 4.93L274.07 4.93L274.07 4.93Q273.48 4.42 272.36 4.42L272.36 4.42L269.64 4.42Z"></path></g></svg>